PathFileType	4	(X/Y/Z)	output.trc
DataRate	CameraRate	NumFrames	NumMarkers	Units	OrigDataRate	OrigDataStartFrame	OrigNumFrames
200	200	4	68	mm	200	259	295
Frame#	Time			LASI			RASI			RSACR			LSACR			USACR			LBAR			RBAR			RHEE			RMT1			RMT5			RMT2			LHEE			LMT1			LMT5			LMT2			LMMAL			LMFC			LLFC			LLMAL			LTIB4			LTIB2			LTIB3			LTIB1			RMMAL			RMFC			RLFC			RLMAL			RTIB1			RTIB2			RTIB3			RTHI1			RTHI4			RTHI3			RTHI2			LTHI1			LTHI4			LTHI3			LTHI2			FHD			LBHD			RBHD			C7			T10			CLAV			LSHO			RSHO			LRAD			LUL			LRFIN			RRAD			RUL			RUFIN			RLEP			RMEP			LLEP			LMEP			LDUPA			LMUPA			LUUPA			RDUPA			RUUPA			RMUPA			LHJC			RHJC			LKJC			RKJC			LAJC			RAJC
		X1	Y1	Z1	X2	Y2	Z2	X3	Y3	Z3	X4	Y4	Z4	X5	Y5	Z5	X6	Y6	Z6	X7	Y7	Z7	X8	Y8	Z8	X9	Y9	Z9	X10	Y10	Z10	X11	Y11	Z11	X12	Y12	Z12	X13	Y13	Z13	X14	Y14	Z14	X15	Y15	Z15	X16	Y16	Z16	X17	Y17	Z17	X18	Y18	Z18	X19	Y19	Z19	X20	Y20	Z20	X21	Y21	Z21	X22	Y22	Z22	X23	Y23	Z23	X24	Y24	Z24	X25	Y25	Z25	X26	Y26	Z26	X27	Y27	Z27	X28	Y28	Z28	X29	Y29	Z29	X30	Y30	Z30	X31	Y31	Z31	X32	Y32	Z32	X33	Y33	Z33	X34	Y34	Z34	X35	Y35	Z35	X36	Y36	Z36	X37	Y37	Z37	X38	Y38	Z38	X39	Y39	Z39	X40	Y40	Z40	X41	Y41	Z41	X42	Y42	Z42	X43	Y43	Z43	X44	Y44	Z44	X45	Y45	Z45	X46	Y46	Z46	X47	Y47	Z47	X48	Y48	Z48	X49	Y49	Z49	X50	Y50	Z50	X51	Y51	Z51	X52	Y52	Z52	X53	Y53	Z53	X54	Y54	Z54	X55	Y55	Z55	X56	Y56	Z56	X57	Y57	Z57	X58	Y58	Z58	X59	Y59	Z59	X60	Y60	Z60	X61	Y61	Z61	X62	Y62	Z62	X63	Y63	Z63	X64	Y64	Z64	X65	Y65	Z65	X66	Y66	Z66	X67	Y67	Z67	X68	Y68	Z68
258	1.290000	134.572220	918.416443	-762.184753	130.554047	918.993774	-984.598877	310.278229	949.972473	-912.231079	309.382507	953.239258	-852.371399	298.630768	966.369019	-882.230042	1270.850342	26.313471	346.475006	1226.416504	26.274328	-1876.926758	323.080383	39.829651	-1019.649963	128.178955	43.446293	-1043.332397	165.072449	34.820820	-1113.683960	140.176376	42.698120	-1079.963989	326.270447	45.818012	-745.158875	134.400055	46.330791	-736.448181	170.026230	33.370056	-662.796936	143.188370	45.919651	-698.033508	276.708923	72.936722	-778.686462	233.164551	456.929108	-829.028381	219.463852	454.019409	-721.402100	278.824127	69.134102	-700.953796	290.366760	209.557358	-691.435913	314.066742	270.883301	-691.355164	263.565094	268.138519	-684.483093	301.768951	314.270538	-686.984924	275.193909	68.358932	-994.065491	235.555481	446.571869	-935.376648	220.925400	461.350433	-1041.267456	284.690155	72.236816	-1068.613159	257.334229	319.252441	-1082.705078	307.783051	313.959656	-1077.166626	276.784424	256.126038	-1081.311646	242.558350	783.840515	-1060.013916	243.188446	635.075562	-1064.881836	191.925903	637.097656	-1066.616577	219.711319	697.180847	-1070.191772	239.017914	778.927734	-698.641174	236.769577	646.593628	-694.972595	186.114334	637.568481	-693.391907	200.637375	701.318176	-689.178223	131.243210	1592.923218	-775.480774	242.049683	1575.927002	-786.277527	253.808548	1571.227661	-909.707947	264.011536	1391.452881	-857.886841	286.673096	1007.453796	-877.330627	142.091690	1328.431152	-872.718140	245.758636	1381.045166	-725.209412	237.686768	1397.163452	-986.654907	167.605072	1358.108032	-222.717361	208.243835	1353.825806	-222.367477	154.396988	1337.313843	-130.718216	243.074738	1391.818481	-1500.462524	289.966675	1385.756348	-1499.498291	237.518311	1394.281616	-1590.627441	294.945251	1331.518433	-1271.266235	256.801910	1297.889893	-1271.988525	223.030411	1300.296021	-454.256927	182.119843	1277.901855	-466.839783	239.007385	1354.021606	-506.210052	203.035507	1371.577026	-536.688110	239.881180	1362.591919	-585.471558	267.745026	1383.618774	-1205.502686	258.359253	1385.007080	-1143.814331	217.546875	1386.579346	-1212.104736	227.657547	883.527832	-771.065796	227.796875	884.268921	-985.614624	226.314209	455.474243	-775.215210	228.240448	453.961151	-988.322021	277.766541	71.035416	-739.820129	279.942017	70.297874	-1031.339355
259	1.295000	134.583099	918.419739	-762.195129	130.569183	918.995300	-984.614319	310.296082	949.978149	-912.237976	309.401825	953.244751	-852.379089	298.641693	966.368164	-882.242554	1270.822998	26.288324	346.496124	1226.400635	26.294437	-1876.936523	323.085938	39.833103	-1019.635559	128.187531	43.449986	-1043.329224	165.080200	34.819954	-1113.686646	140.176361	42.698498	-1079.973877	326.271545	45.809128	-745.153687	134.401123	46.333702	-736.443542	170.028214	33.375854	-662.791016	143.188187	45.916023	-698.030090	276.702881	72.938400	-778.671936	233.158447	456.935364	-829.033325	219.461639	454.020111	-721.409241	278.821136	69.118896	-700.951416	290.377045	209.555878	-691.433960	314.066376	270.886688	-691.364807	263.575500	268.141876	-684.472778	301.774353	314.281860	-686.978760	275.196533	68.354767	-994.071350	235.567764	446.567322	-935.374146	220.923492	461.359253	-1041.266724	284.688751	72.229935	-1068.613281	257.326477	319.260284	-1082.707397	307.774017	313.962097	-1077.168213	276.780457	256.121094	-1081.332153	242.579926	783.837585	-1060.015625	243.224045	635.060913	-1064.873901	191.935760	637.098877	-1066.654297	219.827179	697.090088	-1070.139648	239.029770	778.924927	-698.651733	236.775192	646.591309	-694.986084	186.119766	637.571960	-693.411804	200.650360	701.305420	-689.198242	131.255859	1592.919556	-775.479431	242.047836	1575.932251	-786.266602	253.800552	1571.220825	-909.692017	264.017365	1391.456299	-857.883911	286.688080	1007.455627	-877.334351	142.105453	1328.443115	-872.707092	245.766235	1381.050415	-725.218689	237.683990	1397.167847	-986.655701	167.666519	1358.156250	-222.706329	208.292175	1353.879883	-222.363113	154.464752	1337.374268	-130.708862	243.112854	1391.824951	-1500.458496	290.015015	1385.759277	-1499.492065	237.566986	1394.291138	-1590.626221	294.970032	1331.532349	-1271.244141	256.821564	1297.894165	-1271.990601	223.055786	1300.318237	-454.246185	182.146164	1277.927856	-466.832245	238.978149	1353.949585	-506.256989	203.061920	1371.595093	-536.684021	239.889725	1362.595215	-585.466431	267.750458	1383.636963	-1205.498901	258.375946	1385.019043	-1143.807495	217.572617	1386.588135	-1212.106445	227.671570	883.529785	-771.075317	227.815063	884.270325	-985.622620	226.310043	455.477722	-775.221313	228.245636	453.963287	-988.320435	277.762024	71.028648	-739.811646	279.942627	70.292351	-1031.342285
260	1.300000	134.598679	918.428711	-762.207275	130.581146	918.995483	-984.617615	310.309662	949.972961	-912.242615	309.424561	953.246582	-852.375977	298.667175	966.371094	-882.239502	1270.821045	26.282936	346.474731	1226.396362	26.299570	-1876.952637	323.079437	39.835934	-1019.637024	128.179550	43.459702	-1043.327393	165.013840	34.985703	-1113.803955	140.180786	42.698864	-1079.967529	326.265442	45.809109	-745.155579	134.403519	46.331455	-736.450195	170.029495	33.370846	-662.801392	143.182602	45.921692	-698.029175	276.701294	72.940987	-778.679504	233.166794	456.937042	-829.042725	219.475128	454.022186	-721.411316	278.824005	69.121765	-700.962646	290.364410	209.551804	-691.436462	314.078186	270.864716	-691.353149	263.579803	268.140625	-684.480225	301.788483	314.273529	-686.985107	275.202301	68.356667	-994.081665	235.571472	446.574921	-935.390930	220.945145	461.352112	-1041.269287	284.685028	72.237854	-1068.616821	257.351166	319.252930	-1082.703979	307.801056	313.961273	-1077.170776	276.786926	256.113861	-1081.334839	242.579041	783.854004	-1060.025879	243.230896	635.083435	-1064.883667	191.969803	637.116516	-1066.611328	219.835358	697.086853	-1070.148804	239.046280	778.936646	-698.671692	236.666077	646.556213	-694.614746	186.126785	637.572632	-693.416870	200.656860	701.310547	-689.221680	131.250488	1592.916260	-775.469604	242.044876	1575.935791	-786.259888	253.809586	1571.236938	-909.690369	264.016083	1391.465210	-857.879822	286.698517	1007.461243	-877.344177	142.122406	1328.463135	-872.693604	245.779236	1381.067017	-725.214966	237.670731	1397.176025	-986.658813	167.716217	1358.199219	-222.705719	208.340088	1353.934204	-222.360764	154.510010	1337.444458	-130.688461	243.153839	1391.836426	-1500.452881	290.053589	1385.768555	-1499.477417	237.612350	1394.295166	-1590.623657	294.987976	1331.539307	-1271.250000	256.837860	1297.901489	-1271.988525	223.072021	1300.344604	-454.252380	182.156387	1277.958252	-466.828888	239.018555	1353.963867	-506.259521	203.064789	1371.627441	-536.680115	239.975235	1362.586182	-585.448669	267.764008	1383.655396	-1205.489502	258.382904	1385.030273	-1143.802856	217.572327	1386.581177	-1212.098145	227.689835	883.537292	-771.084961	227.823288	884.274170	-985.628723	226.320953	455.479614	-775.227051	228.258301	453.963501	-988.330078	277.762634	71.031372	-739.821045	279.943665	70.297256	-1031.349243
261	1.305000	134.608551	918.431335	-762.231323	130.599426	918.992798	-984.626160	310.323792	949.985840	-912.262695	309.438751	953.248718	-852.386414	298.693542	966.376099	-882.256775	1270.832642	26.289860	346.463684	1226.396606	26.290318	-1876.934937	323.077240	39.832577	-1019.641785	128.170776	43.446522	-1043.348145	165.079102	34.824413	-1113.687500	140.165833	42.693878	-1079.968506	326.264130	45.806320	-745.160217	134.400726	46.331276	-736.448486	170.010635	33.387077	-662.787781	143.183350	45.922295	-698.030090	276.704346	72.940216	-778.680969	233.176865	456.954071	-829.045471	219.491684	454.022095	-721.412598	278.802612	69.123680	-700.953979	290.390625	209.549759	-691.448669	314.095978	270.865601	-691.361694	263.582764	268.142822	-684.483582	301.781952	314.307373	-686.966797	275.193726	68.350792	-994.069580	235.583801	446.576508	-935.387207	220.954239	461.354797	-1041.282349	284.686737	72.238228	-1068.617310	257.355927	319.264496	-1082.717163	307.809448	313.952698	-1077.169067	276.803986	256.127594	-1081.341431	242.604675	783.838379	-1060.026001	243.253021	635.082275	-1064.869385	191.977951	637.107727	-1066.632446	219.848969	697.080994	-1070.158203	239.063385	778.934631	-698.685730	236.802444	646.606628	-695.035278	186.143295	637.572571	-693.425110	200.671799	701.318787	-689.232300	131.252365	1592.914917	-775.460876	242.045105	1575.942993	-786.258972	253.799881	1571.234497	-909.682739	264.014160	1391.463501	-857.886597	286.722168	1007.465454	-877.355286	142.127029	1328.476440	-872.693420	245.795334	1381.104614	-725.214111	237.673447	1397.181396	-986.656738	167.758118	1358.247925	-222.699829	208.375687	1353.980225	-222.368484	154.552551	1337.516357	-130.680710	243.195389	1391.836548	-1500.455688	290.094482	1385.765747	-1499.478394	237.662308	1394.297852	-1590.628784	295.002899	1331.549927	-1271.237183	256.853302	1297.909424	-1271.983643	223.098694	1300.367676	-454.247528	182.180420	1277.988770	-466.819061	239.044907	1353.985840	-506.246521	203.077179	1371.636475	-536.681641	239.946823	1362.659668	-585.458130	267.777679	1383.666870	-1205.498169	258.392792	1385.043091	-1143.797729	217.586121	1386.584839	-1212.085205	227.703568	883.538208	-771.101135	227.842636	884.272339	-985.638306	226.334274	455.488098	-775.229004	228.269012	453.965637	-988.334778	277.753479	71.031952	-739.817505	279.940247	70.294510	-1031.343506
